<?xml version="1.0" encoding="UTF-8"?><svg id="Ebene_2" xmlns="http://www.w3.org/2000/svg" viewBox="0 0 43.02 32.6"><defs><style>.cls-1{fill:#5c72b6;}</style></defs><g id="Ebene_1-2"><path class="cls-1" d="m43.01,24.15l-1.93-10.59c1.26-1.49,1.95-3.36,1.95-5.32,0-4.54-3.7-8.24-8.24-8.24h-7.6c-5.04,0-9.18,3.94-9.5,8.9l-.43-2.32c-.7-3.81-4.01-6.57-7.89-6.57S2.18,2.77,1.49,6.57L.15,13.86c-.5,2.75.24,5.55,2.02,7.69,1.79,2.14,4.4,3.37,7.19,3.37h10.47c2.8,0,5.27-1.45,6.7-3.65v3c0,.35.29.64.64.64h15.2s.04,0,.06,0c.02,0,.04,0,.06,0,.02,0,.04,0,.05-.01.02,0,.04-.01.06-.02.02,0,.03-.01.05-.02.02,0,.03-.02.05-.03.02,0,.03-.02.05-.03.01,0,.03-.02.04-.03.04-.04.08-.08.11-.12.01-.01.02-.03.03-.05,0-.02.02-.03.03-.05,0-.02.01-.03.02-.05,0-.02.01-.03.02-.05,0-.01,0-.03.01-.05,0,0,0-.01,0-.02,0-.01,0-.03,0-.04,0-.02,0-.04,0-.06,0-.02,0-.04,0-.07,0-.02,0-.04,0-.06Zm-33-.51v-4.94c0-.35-.29-.64-.64-.64s-.64.29-.64.64v4.92c-2.16-.17-4.16-1.2-5.57-2.89-1.54-1.85-2.18-4.27-1.75-6.64l1.33-7.28c.58-3.2,3.37-5.52,6.62-5.52s6.04,2.32,6.62,5.52l1.68,9.18h0s1.4,7.66,1.4,7.66h-9.06Zm16.52-6.7c0,3.51-2.72,6.41-6.17,6.68l-1.43-7.81v-6.3c0-4.32,3.35-7.88,7.59-8.21v15.63Zm7.24,6.7c1.01-1.54,1.74-3.28,2.11-5.06.07-.35-.15-.69-.5-.76-.35-.07-.69.15-.76.5-.39,1.87-1.2,3.68-2.35,5.23-.02.03-.04.06-.06.09h-4.4V1.28h6.96c3.84,0,6.96,3.12,6.96,6.96,0,1.73-.64,3.39-1.8,4.67,0,0-.01.02-.02.02-.01.01-.02.03-.04.04,0,0,0,0,0,.01-.01.02-.02.03-.03.05-.01.02-.02.03-.03.05,0,.02-.02.04-.02.05,0,.02-.01.04-.02.06,0,.04-.02.07-.02.11,0,.04,0,.08,0,.11,0,.02,0,.04,0,.06v.03s1.86,10.12,1.86,10.12h-7.84Z"/><path class="cls-1" d="m43.02,24.22s0-.04,0-.06h0s0,.05,0,.06Z"/><path class="cls-1" d="m8.32,13.69h-1.02s-.06,0-.08,0c.04,0,.09,0,.15,0h0c.21,0,.53,0,.96,0Z"/><path class="cls-1" d="m10.87,8.14c-1.06,0-1.98.59-2.45,1.47-.33-.2-.72-.31-1.13-.31-1.21,0-2.19.98-2.19,2.2s.89,2.1,2.02,2.19c.02,0,.05,0,.09,0,.04,0,.09,0,.15,0h0c.21,0,.53,0,.96,0,.13.14.41.56.41,1.5,0,.35.29.64.64.64s.64-.29.64-.64c0-.61-.09-1.11-.24-1.5h1.1c1.53,0,2.77-1.24,2.77-2.77s-1.24-2.77-2.77-2.77Zm0,4.27h-3.57s-.07,0-.1,0c-.45-.05-.81-.44-.81-.9,0-.5.41-.91.91-.91.38,0,.71.22.85.57.11.29.41.45.72.39.3-.06.52-.33.52-.63,0-.82.67-1.49,1.49-1.49s1.49.67,1.49,1.49-.67,1.49-1.49,1.49Z"/><path class="cls-1" d="m7.36,13.69s-.04,0-.07,0c-.06,0-.12,0-.18,0,.02,0,.05,0,.09,0,.04,0,.09,0,.15,0Z"/><path class="cls-1" d="m35.25,10.49c1.06-1,1.35-2.6.64-3.84-.65-1.14-2.05-1.75-3.41-1.46-.21.04-.39.2-.47.4-.6,1.59-.35,3.25.64,4.32.36.39.82.7,1.35.9.34.91.59,1.89.73,2.86.05.32.32.55.63.55.03,0,.07,0,.1,0,.35-.05.59-.38.54-.73-.15-1-.41-2.02-.75-2.98Zm-2.16-4.09c.69-.02,1.35.32,1.68.89.42.73.23,1.68-.41,2.28-.3-.13-.56-.31-.77-.53-.59-.64-.77-1.62-.5-2.63Z"/><path class="cls-1" d="m7.19,12.4s.07,0,.1,0h.45c-.24,0-.46,0-.55,0Z"/><path class="cls-1" d="m32.95,26.86c-1.06,0-1.98.59-2.45,1.47-.33-.2-.72-.31-1.13-.31-1.21,0-2.19.98-2.19,2.2s.98,2.19,2.19,2.19h3.58c1.53,0,2.77-1.24,2.77-2.77s-1.24-2.77-2.77-2.77Zm0,4.27h-3.58c-.5,0-.91-.41-.91-.91s.41-.91.91-.91c.38,0,.71.22.85.57.11.29.41.45.72.39.3-.06.52-.33.52-.63,0-.82.67-1.49,1.49-1.49s1.49.67,1.49,1.49-.67,1.49-1.49,1.49Z"/><path class="cls-1" d="m5.68,27.12v5.42h-.65c-.1,0-.19-.02-.26-.05-.07-.03-.14-.09-.2-.17l-2.36-3.01v3.23h-1.16v-5.42h.66s.09,0,.12,0c.05,0,.09.02.13.04.04.02.07.04.11.08.03.02.05.06.09.1l2.36,3.02v-3.23h1.16Z"/><polygon class="cls-1" points="11.77 28.19 11.77 29.28 13.55 29.28 13.55 30.34 11.77 30.34 11.77 31.46 14.03 31.46 14.03 32.54 10.49 32.54 10.49 27.12 14.03 27.12 14.03 28.19 11.77 28.19"/><path class="cls-1" d="m24.4,27.12v5.42h-1.16v-3.2l-1.22,2.29c-.1.19-.26.29-.48.29h-.13c-.21,0-.38-.1-.48-.3l-1.23-2.3v3.21h-1.16v-5.42h.88s.09,0,.12,0c.05,0,.09.01.13.03.05.02.09.05.13.09.03.03.06.07.08.12l1.53,2.83s.05.09.07.14c.02-.05.05-.1.07-.15l1.51-2.83s.06-.09.09-.12c.04-.04.08-.06.12-.08.04-.01.08-.02.13-.03.03,0,.07,0,.12,0h.88Z"/><path class="cls-1" d="m42.27,30.78c0,.25-.04.49-.13.71-.09.22-.21.42-.38.58-.17.16-.37.29-.61.39-.24.09-.51.14-.81.14-.17,0-.34-.02-.51-.05-.17-.03-.33-.08-.48-.14-.15-.06-.3-.14-.43-.23-.14-.09-.26-.19-.37-.3l-.09-.09.34-.56c.04-.06.09-.1.15-.14.14-.08.31-.07.48.05.07.05.14.1.24.16.08.05.19.1.3.15.11.04.24.06.4.06.23,0,.41-.05.52-.15.11-.1.17-.24.17-.43,0-.1-.02-.17-.07-.23-.05-.07-.13-.12-.21-.17-.1-.05-.22-.1-.35-.13-.14-.04-.29-.08-.44-.13-.15-.05-.3-.11-.45-.18-.16-.07-.3-.17-.42-.29-.13-.12-.23-.27-.3-.45-.08-.18-.11-.4-.11-.65,0-.21.04-.41.12-.6.08-.2.2-.37.36-.52.16-.15.35-.27.57-.36.22-.09.48-.13.77-.13.32,0,.62.05.89.15.27.1.51.25.7.43l.09.08-.3.56c-.04.07-.09.12-.14.16-.12.08-.29.09-.46-.02-.05-.03-.12-.07-.2-.12-.07-.04-.16-.08-.25-.11-.09-.03-.2-.05-.33-.05-.12,0-.21.01-.3.04-.08.03-.14.06-.19.1-.05.04-.08.09-.11.14-.02.06-.04.13-.04.2,0,.08.02.15.06.2.05.06.13.12.22.17.1.05.22.1.35.14.14.04.29.09.44.14.15.05.31.11.45.18.16.08.3.17.42.28.13.12.23.26.3.43.08.17.11.37.11.61Z"/></g></svg>